<svg xmlns="http://www.w3.org/2000/svg" viewBox="0 0 200.6 61.9"><defs><style>.cls-1{fill:#fff;}.cls-2{fill:#e73d30;}.cls-3{fill:#2ea34a;}.cls-4{fill:#5078bb;}.cls-5{fill:#f8b518;}.cls-6{fill:none;stroke:#868686;stroke-miterlimit:10;stroke-width:0.75px;}.cls-7{font-size:16.47px;}.cls-7,.cls-8{fill:#5f6369;font-family:Poppins-Medium, Poppins;font-weight:500;}.cls-8{font-size:21.71px;}.cls-9{fill:#f8bb15;}</style></defs><title>Google_Reviews</title><g id="Layer_2" data-name="Layer 2"><g id="Layer_1-2" data-name="Layer 1"><rect class="cls-1" width="200.6" height="61.92"/><path class="cls-2" d="M19.2,24.3h0V24l1-1.7a17.1,17.1,0,0,1,1.1-1.4l1.2-1.2,2.1-1.6,1-.6.9-.4,1.1-.5,1.1-.3.7-.2h6.7l1.3.3,1.3.5,1.3.6L42,18.7l1.1,1h0l-.7.8-2.6,2.5-.9,1h-.2a3.5,3.5,0,0,0-.9-.7l-.8-.5-1.5-.7H30.3l-.6.2-.9.5a8,8,0,0,0-1.9,1.3,10,10,0,0,0-1.4,1.5c-.2.4-.5.8-.7,1.3a3.7,3.7,0,0,0-.5,1.1h-.2l-1.6-1.3-1.9-1.5-1.4-1.1Z"/><path class="cls-3" d="M24.3,34.2h0l.5,1.1a8.6,8.6,0,0,0,1,1.6l.8.9a7.5,7.5,0,0,0,2,1.5l1.7.7.7.2h4.2l.5-.2a4.6,4.6,0,0,0,1.9-.8l.5-.2h0l.4.3L40.7,41,43,42.8h0c-.1.1-.2.2-.2.3l-1.5,1.1-1.6.9-1.7.7-1.2.3H29.1l-1.2-.4-1.1-.4-1.8-1L23,43l-1.3-1.2A18.4,18.4,0,0,1,20,39.6a10,10,0,0,1-.8-1.4h0c0-.1.1-.1.2-.2L23.1,35l1-.8C24.2,34.2,24.2,34.1,24.3,34.2Z"/><path class="cls-4" d="M43.1,42.9h-.3l-.2-.2h-.5a.2.2,0,0,0-.2-.2h-.1l-.3-.2a.1.1,0,0,0-.1-.1H41l-.2-.2a.1.1,0,0,1-.1-.1l-.3-.2H40l-.3-.2-.2-.2-.3-.2H39a.1.1,0,0,1-.1-.1h-.3a.1.1,0,0,1-.1-.1h-.1l-.2-.2c-.1,0-.1,0-.1-.1h.2l.5-.3.5-.6.7-.7.3-.6a2.5,2.5,0,0,0,.4-.7l.3-.8a1.9,1.9,0,0,1,.2-.7H32.9V28.5H47.4v.3a.3.3,0,0,1,.1.2v.3h0v.2h0c.1.1.1.1.1.2h0v.4h0v.2h0v1.5h0v.5h0v.2h0v.2h-.1v.2h0v.2h0c0,.1,0,.1-.1.2h0v.2h0a1.1,1.1,0,0,0-.1.5,2.9,2.9,0,0,0-.2.9l-.4,1.3-.3.7a1.7,1.7,0,0,0-.2.5l-.3.6-.3.5a4.1,4.1,0,0,0-.5.9l-.8.9-.4.6h0l-.7.7a.1.1,0,0,0-.1.1Z"/><path class="cls-5" d="M24.3,34.2l-.3.2-.8.5a2.7,2.7,0,0,1-.8.7l-1,.8-.8.6-.5.4-.5.4-.4.3h-.1l-.4-.8-.5-1.5-.3-.9a1.3,1.3,0,0,0-.1-.6.8.8,0,0,0-.1-.4v-.5h-.1v-.2h0v-.2h0v-.2c0-.1,0-.1-.1-.2v-.2h0v-1h0a.3.3,0,0,1,.1-.2v-.2h0v-.2h0v-.2h0v-.2h0v-.2h0v-.5a.8.8,0,0,0,.1-.4,6.4,6.4,0,0,0,.2-.7,1.9,1.9,0,0,1,.2-.7,6.5,6.5,0,0,1,.4-1.3l.3-.6a1.4,1.4,0,0,1,.2-.6h.3l.2.2h.2c.1.1.1.2.2.2h.2c0,.1,0,.1.1.1l.2.2h.2c0,.1.1.1.2.2h.3l.3.2c0,.1,0,.1.1.1l.2.2h.1l.3.2h.4l.3.2c0,.1.1.1.1.2h.1l.3.2a.1.1,0,0,0,.1.1l.3.2a.2.2,0,0,0,.2.2.1.1,0,0,0,.1.1h.2a.1.1,0,0,1-.1.1,1.9,1.9,0,0,1-.2.7,1.1,1.1,0,0,1-.1.5v.7h0v.5h0v.6h0v.3h0v.2h.1v.4a1.3,1.3,0,0,1,.1.6c.1.1.1.2.2.4v.3A.1.1,0,0,1,24.3,34.2Z"/><path class="cls-6" d="M59.3,33.9l-6.8-7.6V15a4.3,4.3,0,0,0-4.3-4.3H16.4A4.3,4.3,0,0,0,12.1,15V46.9a4.2,4.2,0,0,0,4.3,4.2H48.2a4.2,4.2,0,0,0,4.3-4.2V35.1h6.3A.7.7,0,0,0,59.3,33.9Z"/><text class="cls-7" transform="translate(65.8 23.6) scale(0.94 1)">Google Reviews</text><text class="cls-8" transform="translate(64.3 47.7) scale(0.94 1)">4.9</text><path class="cls-9" d="M129.9,46.8l-4.8-3.4c-.3-.3-.5-.2-.9,0l-4.2,3-.5.3c.6-1.9,1.2-3.6,1.8-5.4a.8.8,0,0,0-.4-1L116.5,37h5.7c.4,0,.5-.2.6-.5l1.8-5.1a.8.8,0,0,1,.1-.4l1.8,5.3c.2.5.4.7.9.7s3.7,0,5.5,0h0l-2.2,1.7-2.4,1.7a.6.6,0,0,0-.2.7C128.7,43,129.3,44.8,129.9,46.8Z"/><path class="cls-9" d="M152.9,36.9c1.9,0,3.7-.1,5.6,0s.6-.2.8-.6l1.8-5.4,1.5,4.3c.2.5.2,1.3.6,1.6a4.7,4.7,0,0,0,1.7.1h4.4l-.3.2-4.2,3.2a.6.6,0,0,0-.3.8l1.8,5.5L162.4,44c-.4-.3-.8-.8-1.3-.8s-.9.5-1.3.8l-3.9,2.7c.5-1.4.9-2.7,1.3-4.1l.5-1.4a.6.6,0,0,0-.3-.8l-4.2-3.1-.3-.3Z"/><path class="cls-9" d="M101.3,46.7l1.8-5.5a.6.6,0,0,0-.3-.8L98.3,37h2c1.2,0,2.4-.1,3.6,0s.6-.2.8-.6,1.1-3.3,1.6-4.9l.2-.5,1.2,3.5a13.9,13.9,0,0,1,.6,1.9c.2.4.3.6.8.6h5.7l-.6.4-3.9,2.9a.8.8,0,0,0-.3,1.1l1.5,4.7c0,.2.1.3.1.6l-.4-.3-4.3-3.1c-.3-.1-.5-.2-.8,0l-3.9,2.9Z"/><path class="cls-9" d="M179.3,30.9c.7,1.9,1.3,3.6,1.8,5.4s.4.6.8.6c1.9-.1,3.7,0,5.6,0h0l-.4.3L183,40.4a.6.6,0,0,0-.2.9l1.5,5c.1.1.1.2.1.4l-3.9-2.8c-1.2-.8-1.2-.8-2.3,0l-4,2.8c.2-.6.3-1.1.5-1.6l1.2-3.9a.6.6,0,0,0-.3-.8L171,37h5.8c.3,0,.5-.2.7-.5s1.1-3.5,1.7-5.2C179.2,31.1,179.3,31.1,179.3,30.9Z"/><path class="cls-9" d="M151.1,37c-1.5,1.2-2.9,2.3-4.4,3.3s-.5.5-.3,1,1.1,3.5,1.7,5.4l-.5-.3-4.3-3a.6.6,0,0,0-.8,0l-4.8,3.3.9-2.6a24.6,24.6,0,0,1,.9-2.9.6.6,0,0,0-.3-.8L134.6,37h5.7c.5,0,.6-.2.8-.6s1.1-3.3,1.6-4.9l.2-.5c.5,1.3.9,2.6,1.3,3.8l.6,1.7c.1.4.3.5.6.5h5.7Z"/></g></g></svg>